<mxfile host="app.diagrams.net" modified="2024-06-18T14:54:12.614Z" agent="Mozilla/5.0 (Windows NT 10.0; Win64; x64) AppleWebKit/537.36 (KHTML, like Gecko) Chrome/125.0.0.0 Safari/537.36" etag="8q50m_PYlVfBqKODdhLM" version="24.5.5" type="github" pages="4">
  <diagram name="option-1" id="xIKOyrkWzy8Dl_fA8WEf">
    <mxGraphModel dx="1050" dy="661" grid="1" gridSize="10" guides="1" tooltips="1" connect="1" arrows="1" fold="1" page="1" pageScale="1" pageWidth="1100" pageHeight="850" math="0" shadow="0">
      <root>
        <mxCell id="0" />
        <mxCell id="1" parent="0" />
        <mxCell id="UTLVXiV4EajCc-Q2aEKk-1" value="" style="rounded=0;whiteSpace=wrap;html=1;fillColor=default;strokeColor=#6c8ebf;" vertex="1" parent="1">
          <mxGeometry x="140" y="140" width="170" height="70" as="geometry" />
        </mxCell>
        <mxCell id="UTLVXiV4EajCc-Q2aEKk-2" style="edgeStyle=orthogonalEdgeStyle;rounded=0;orthogonalLoop=1;jettySize=auto;html=1;startArrow=none;" edge="1" parent="1" source="UTLVXiV4EajCc-Q2aEKk-36" target="UTLVXiV4EajCc-Q2aEKk-12">
          <mxGeometry relative="1" as="geometry">
            <Array as="points" />
          </mxGeometry>
        </mxCell>
        <mxCell id="UTLVXiV4EajCc-Q2aEKk-3" value="Informatica C360 SaaS" style="html=1;overflow=block;blockSpacing=1;whiteSpace=wrap;fontSize=16.7;fontColor=#3a414a;spacing=9;strokeColor=#3a414a;strokeOpacity=100;fillOpacity=100;rounded=1;absoluteArcSize=1;arcSize=9;fillColor=#ffdda6;strokeWidth=0.8;lucidId=FAfvqJk8E.Ea;" vertex="1" parent="1">
          <mxGeometry x="700" y="130" width="195" height="90" as="geometry" />
        </mxCell>
        <mxCell id="UTLVXiV4EajCc-Q2aEKk-11" value="INGRESS JOB" style="overflow=block;blockSpacing=1;whiteSpace=wrap;aspect=fixed;html=1;points=[];align=center;verticalAlign=top;image;image=img/lib/mscae/Data_Box.svg;fontSize=13;spacing=0;strokeColor=#3a414a;strokeOpacity=100;rounded=1;absoluteArcSize=1;arcSize=9;fillColor=#45ADD2;strokeWidth=0.8;lucidId=rtmv1XBsKIsu;" vertex="1" parent="1">
          <mxGeometry x="610" y="74" width="58.6" height="56" as="geometry" />
        </mxCell>
        <mxCell id="UTLVXiV4EajCc-Q2aEKk-12" value="TBA on-prem" style="html=1;overflow=block;blockSpacing=1;whiteSpace=wrap;rounded=1;arcSize=50;fontSize=16.7;fontColor=#3a414a;spacing=3.8;strokeColor=#3a414a;strokeOpacity=100;fillOpacity=100;fillColor=default;strokeWidth=0.8;lucidId=_zfvtoaLD8R3;" vertex="1" parent="1">
          <mxGeometry x="60" y="450" width="120" height="60" as="geometry" />
        </mxCell>
        <mxCell id="UTLVXiV4EajCc-Q2aEKk-13" value="EGRESS JOBS&amp;nbsp;" style="overflow=block;blockSpacing=1;whiteSpace=wrap;aspect=fixed;html=1;points=[];align=center;verticalAlign=top;image;image=img/lib/mscae/Data_Box.svg;fontSize=13;spacing=0;strokeColor=#3a414a;strokeOpacity=100;rounded=1;absoluteArcSize=1;arcSize=9;fillColor=#45ADD2;strokeWidth=0.8;lucidId=rtmv1XBsKIsu;" vertex="1" parent="1">
          <mxGeometry x="700" y="310" width="63.84" height="61" as="geometry" />
        </mxCell>
        <mxCell id="UTLVXiV4EajCc-Q2aEKk-14" value="Created and updated Golden Records" style="shape=note2;boundedLbl=1;whiteSpace=wrap;html=1;size=13;verticalAlign=top;align=center;fontSize=13;" vertex="1" parent="1">
          <mxGeometry x="830" y="240" width="120" height="80" as="geometry" />
        </mxCell>
        <mxCell id="UTLVXiV4EajCc-Q2aEKk-15" value="MDM_ID and all the consolidated attribute for person (B2C) and organization (B2B)" style="shape=note;whiteSpace=wrap;html=1;backgroundOutline=1;darkOpacity=0.05;strokeColor=#da1010;fontSize=13;size=16;" vertex="1" parent="1">
          <mxGeometry x="830" y="347" width="120" height="113" as="geometry" />
        </mxCell>
        <mxCell id="UTLVXiV4EajCc-Q2aEKk-16" value="Customers&lt;div&gt;(B2B,&amp;nbsp;&lt;span style=&quot;background-color: initial;&quot;&gt;B2C)&lt;/span&gt;&lt;/div&gt;" style="html=1;overflow=block;blockSpacing=1;whiteSpace=wrap;fontSize=13;spacing=0;strokeColor=#9673a6;strokeOpacity=100;rounded=1;absoluteArcSize=1;arcSize=9;fillColor=#e1d5e7;strokeWidth=0.8;lucidId=Y6fv7KWgEG-H;" vertex="1" parent="1">
          <mxGeometry x="720" y="30" width="72.42" height="58" as="geometry" />
        </mxCell>
        <mxCell id="UTLVXiV4EajCc-Q2aEKk-17" value="" style="html=1;overflow=block;blockSpacing=1;whiteSpace=wrap;shape=image;fontSize=13;spacing=3.8;strokeColor=none;strokeOpacity=100;strokeWidth=0;image=https://images.lucid.app/images/98843362-60f4-46ee-85de-753dc02aa09e/content;lucidId=MXlvsj6demjr;" vertex="1" parent="1">
          <mxGeometry x="799.42" y="30" width="72" height="72" as="geometry" />
        </mxCell>
        <mxCell id="UTLVXiV4EajCc-Q2aEKk-18" value="" style="html=1;jettySize=18;whiteSpace=wrap;fontSize=13;strokeColor=#3a414a;strokeOpacity=100;strokeWidth=0.8;rounded=1;arcSize=12;edgeStyle=orthogonalEdgeStyle;startArrow=none;endArrow=block;endFill=1;exitX=0.5;exitY=0.997;exitPerimeter=0;entryX=0.5;entryY=1;entryPerimeter=0;lucidId=~YlvwF8hCNBU;" edge="1" parent="1" source="UTLVXiV4EajCc-Q2aEKk-16">
          <mxGeometry width="100" height="100" relative="1" as="geometry">
            <Array as="points" />
            <mxPoint x="838.42" y="112" as="targetPoint" />
          </mxGeometry>
        </mxCell>
        <mxCell id="UTLVXiV4EajCc-Q2aEKk-19" value="Relationship" style="text;html=1;resizable=0;labelBackgroundColor=default;align=center;verticalAlign=middle;fontStyle=1;fontColor=#333333;fontSize=13.3;" vertex="1" parent="UTLVXiV4EajCc-Q2aEKk-18">
          <mxGeometry relative="1" as="geometry" />
        </mxCell>
        <mxCell id="UTLVXiV4EajCc-Q2aEKk-20" value="Microsoft Azure Blob Storage v3 connector" style="html=1;overflow=block;blockSpacing=1;whiteSpace=wrap;fontSize=13;spacing=0;strokeColor=#6c8ebf;strokeOpacity=100;fillOpacity=100;fillColor=#dae8fc;strokeWidth=0.8;lucidId=bUlvSHZIWZw~;" vertex="1" parent="1">
          <mxGeometry x="397.5" y="220" width="95" height="60" as="geometry" />
        </mxCell>
        <mxCell id="UTLVXiV4EajCc-Q2aEKk-21" value="" style="strokeColor=none;fillColor=none;whiteSpace=wrap;fontSize=12;fontColor=#3a414a;spacing=3.8;strokeOpacity=100;rounded=1;absoluteArcSize=1;arcSize=9;strokeWidth=0.8;html=1;" vertex="1" parent="1">
          <mxGeometry x="500" y="220" width="125" height="66" as="geometry" />
        </mxCell>
        <mxCell id="UTLVXiV4EajCc-Q2aEKk-22" value="" style="shape=curlyBracket;rounded=1;flipH=1;whiteSpace=wrap;fontSize=16.7;fontColor=#3a414a;spacing=3.8;strokeColor=#3a414a;strokeOpacity=100;strokeWidth=0.8;" vertex="1" parent="UTLVXiV4EajCc-Q2aEKk-21">
          <mxGeometry x="6" width="8.25" height="66" as="geometry" />
        </mxCell>
        <mxCell id="UTLVXiV4EajCc-Q2aEKk-23" value="Connects  Blob Storage v3 to C360 SaaS" style="strokeColor=none;fillColor=none;whiteSpace=wrap;fontSize=13;fontColor=#3a414a;spacing=3.8;strokeOpacity=100;rounded=1;absoluteArcSize=1;arcSize=9;strokeWidth=0.8;" vertex="1" parent="UTLVXiV4EajCc-Q2aEKk-21">
          <mxGeometry x="15.25" width="116.75" height="66" as="geometry" />
        </mxCell>
        <mxCell id="UTLVXiV4EajCc-Q2aEKk-24" value="" style="strokeColor=none;fillColor=none;whiteSpace=wrap;fontSize=16.7;fontColor=#3a414a;spacing=3.8;strokeOpacity=100;rounded=1;absoluteArcSize=1;arcSize=9;strokeWidth=0.8;html=1;" vertex="1" parent="1">
          <mxGeometry x="538" y="395" width="125" height="66" as="geometry" />
        </mxCell>
        <mxCell id="UTLVXiV4EajCc-Q2aEKk-25" value="" style="shape=curlyBracket;rounded=1;flipH=1;whiteSpace=wrap;fontSize=16.7;fontColor=#3a414a;spacing=3.8;strokeColor=#3a414a;strokeOpacity=100;strokeWidth=0.8;" vertex="1" parent="UTLVXiV4EajCc-Q2aEKk-24">
          <mxGeometry width="8.25" height="66" as="geometry" />
        </mxCell>
        <mxCell id="UTLVXiV4EajCc-Q2aEKk-26" value="Connects C360 SaaS to Blob Storage" style="strokeColor=none;fillColor=none;whiteSpace=wrap;fontSize=13;fontColor=#3a414a;spacing=3.8;strokeOpacity=100;rounded=1;absoluteArcSize=1;arcSize=9;strokeWidth=0.8;" vertex="1" parent="UTLVXiV4EajCc-Q2aEKk-24">
          <mxGeometry x="8.25" width="116.75" height="66" as="geometry" />
        </mxCell>
        <mxCell id="UTLVXiV4EajCc-Q2aEKk-27" value="Daily delta/full" style="text;html=1;strokeColor=none;fillColor=none;align=center;verticalAlign=middle;whiteSpace=wrap;rounded=0;fontStyle=1" vertex="1" parent="1">
          <mxGeometry x="668.5999999999999" y="410" width="120" height="30" as="geometry" />
        </mxCell>
        <mxCell id="UTLVXiV4EajCc-Q2aEKk-28" value="Daily job" style="text;html=1;strokeColor=none;fillColor=none;align=center;verticalAlign=middle;whiteSpace=wrap;rounded=0;fontStyle=1" vertex="1" parent="1">
          <mxGeometry x="579.9999999999999" y="30" width="120" height="30" as="geometry" />
        </mxCell>
        <mxCell id="UTLVXiV4EajCc-Q2aEKk-29" value="Microsoft Azure Blob Storage v3 connector" style="html=1;overflow=block;blockSpacing=1;whiteSpace=wrap;fontSize=13;spacing=0;strokeColor=#6c8ebf;strokeOpacity=100;fillOpacity=100;fillColor=#dae8fc;strokeWidth=0.8;lucidId=bUlvSHZIWZw~;" vertex="1" parent="1">
          <mxGeometry x="415" y="389" width="95" height="60" as="geometry" />
        </mxCell>
        <mxCell id="UTLVXiV4EajCc-Q2aEKk-30" value="" style="edgeStyle=orthogonalEdgeStyle;rounded=0;orthogonalLoop=1;jettySize=auto;html=1;endArrow=none;entryX=1;entryY=0.5;entryDx=0;entryDy=0;entryPerimeter=0;" edge="1" parent="1" source="UTLVXiV4EajCc-Q2aEKk-3" target="UTLVXiV4EajCc-Q2aEKk-31">
          <mxGeometry relative="1" as="geometry">
            <Array as="points">
              <mxPoint x="798" y="480" />
              <mxPoint x="550" y="480" />
            </Array>
            <mxPoint x="798" y="220" as="sourcePoint" />
            <mxPoint x="600" y="475" as="targetPoint" />
          </mxGeometry>
        </mxCell>
        <mxCell id="UTLVXiV4EajCc-Q2aEKk-31" value="" style="verticalLabelPosition=bottom;html=1;verticalAlign=top;align=center;strokeColor=none;fillColor=#00BEF2;shape=mxgraph.azure.storage_blob;" vertex="1" parent="1">
          <mxGeometry x="437.5" y="456.75" width="50" height="45" as="geometry" />
        </mxCell>
        <mxCell id="UTLVXiV4EajCc-Q2aEKk-33" value="Secure Agent" style="strokeColor=none;fillColor=none;whiteSpace=wrap;fontSize=13;fontColor=#3a414a;spacing=3.8;strokeOpacity=100;rounded=1;absoluteArcSize=1;arcSize=9;strokeWidth=0.8;" vertex="1" parent="1">
          <mxGeometry x="493.25" y="30" width="116.75" height="40" as="geometry" />
        </mxCell>
        <mxCell id="UTLVXiV4EajCc-Q2aEKk-46" style="edgeStyle=orthogonalEdgeStyle;rounded=0;orthogonalLoop=1;jettySize=auto;html=1;" edge="1" parent="1" source="UTLVXiV4EajCc-Q2aEKk-34" target="UTLVXiV4EajCc-Q2aEKk-3">
          <mxGeometry relative="1" as="geometry" />
        </mxCell>
        <mxCell id="UTLVXiV4EajCc-Q2aEKk-34" value="" style="verticalLabelPosition=bottom;html=1;verticalAlign=top;align=center;strokeColor=none;fillColor=#00BEF2;shape=mxgraph.azure.storage_blob;" vertex="1" parent="1">
          <mxGeometry x="420" y="153" width="50" height="45" as="geometry" />
        </mxCell>
        <mxCell id="UTLVXiV4EajCc-Q2aEKk-35" value="" style="edgeStyle=orthogonalEdgeStyle;rounded=0;orthogonalLoop=1;jettySize=auto;html=1;startArrow=none;endArrow=none;" edge="1" parent="1" source="UTLVXiV4EajCc-Q2aEKk-31" target="UTLVXiV4EajCc-Q2aEKk-36">
          <mxGeometry relative="1" as="geometry">
            <Array as="points" />
            <mxPoint x="438" y="479" as="sourcePoint" />
            <mxPoint x="200" y="479" as="targetPoint" />
          </mxGeometry>
        </mxCell>
        <mxCell id="UTLVXiV4EajCc-Q2aEKk-36" value="Downstream application" style="rounded=0;whiteSpace=wrap;html=1;" vertex="1" parent="1">
          <mxGeometry x="250" y="450" width="120" height="60" as="geometry" />
        </mxCell>
        <mxCell id="UTLVXiV4EajCc-Q2aEKk-37" value="Application is maintained by TBA" style="shape=note;whiteSpace=wrap;html=1;backgroundOutline=1;darkOpacity=0.05;fillColor=#fff2cc;strokeColor=#d6b656;size=13;" vertex="1" parent="1">
          <mxGeometry x="270" y="530" width="80" height="80" as="geometry" />
        </mxCell>
        <mxCell id="UTLVXiV4EajCc-Q2aEKk-38" value="Format of the publication" style="shape=note;whiteSpace=wrap;html=1;backgroundOutline=1;darkOpacity=0.05;fillColor=#fff2cc;strokeColor=#d6b656;size=13;" vertex="1" parent="1">
          <mxGeometry x="560.5" y="501.75" width="80" height="68.25" as="geometry" />
        </mxCell>
        <mxCell id="UTLVXiV4EajCc-Q2aEKk-39" value="&lt;span style=&quot;color: rgb(58, 65, 74); font-family: Helvetica; font-size: 23px; font-style: normal; font-variant-ligatures: normal; font-variant-caps: normal; font-weight: 400; letter-spacing: normal; orphans: 2; text-align: center; text-indent: 0px; text-transform: none; widows: 2; word-spacing: 0px; -webkit-text-stroke-width: 0px; background-color: rgb(251, 251, 251); text-decoration-thickness: initial; text-decoration-style: initial; text-decoration-color: initial; float: none; display: inline !important;&quot;&gt;TBA on-prem&lt;/span&gt;" style="text;whiteSpace=wrap;html=1;fontSize=23;" vertex="1" parent="1">
          <mxGeometry x="160" y="155" width="140" height="40" as="geometry" />
        </mxCell>
        <mxCell id="UTLVXiV4EajCc-Q2aEKk-40" value="Delta Updates" style="text;html=1;strokeColor=none;fillColor=none;align=center;verticalAlign=middle;whiteSpace=wrap;rounded=0;" vertex="1" parent="1">
          <mxGeometry x="415" y="108" width="60" height="30" as="geometry" />
        </mxCell>
        <mxCell id="UTLVXiV4EajCc-Q2aEKk-47" style="edgeStyle=orthogonalEdgeStyle;rounded=0;orthogonalLoop=1;jettySize=auto;html=1;exitX=1;exitY=0.5;exitDx=0;exitDy=0;entryX=0;entryY=0.5;entryDx=0;entryDy=0;entryPerimeter=0;" edge="1" parent="1" source="UTLVXiV4EajCc-Q2aEKk-1" target="UTLVXiV4EajCc-Q2aEKk-34">
          <mxGeometry relative="1" as="geometry" />
        </mxCell>
        <mxCell id="jOWFvfhWtUZJnj_sLtPq-1" value="Azure VM" style="strokeColor=none;fillColor=none;whiteSpace=wrap;fontSize=13;fontColor=#3a414a;spacing=3.8;strokeOpacity=100;rounded=1;absoluteArcSize=1;arcSize=9;strokeWidth=0.8;" vertex="1" parent="1">
          <mxGeometry x="491.5" y="138" width="116.75" height="40" as="geometry" />
        </mxCell>
        <mxCell id="uVDd3Pz3LuNNK4ch08mF-1" value="" style="image;points=[];aspect=fixed;html=1;align=center;shadow=0;dashed=0;image=img/lib/allied_telesis/computer_and_terminals/Server_Desktop.svg;" vertex="1" parent="1">
          <mxGeometry x="529.08" y="75" width="42.599999999999994" height="54" as="geometry" />
        </mxCell>
        <mxCell id="DJTNmcJBY1qW09pVh8I9-1" value="Secure Agent" style="strokeColor=none;fillColor=none;whiteSpace=wrap;fontSize=13;fontColor=#3a414a;spacing=3.8;strokeOpacity=100;rounded=1;absoluteArcSize=1;arcSize=9;strokeWidth=0.8;" vertex="1" parent="1">
          <mxGeometry x="650" y="480" width="116.75" height="40" as="geometry" />
        </mxCell>
        <mxCell id="DJTNmcJBY1qW09pVh8I9-2" value="" style="image;points=[];aspect=fixed;html=1;align=center;shadow=0;dashed=0;image=img/lib/allied_telesis/computer_and_terminals/Server_Desktop.svg;" vertex="1" parent="1">
          <mxGeometry x="685.83" y="525" width="42.599999999999994" height="54" as="geometry" />
        </mxCell>
      </root>
    </mxGraphModel>
  </diagram>
  <diagram id="GwSDyWFpAkEhWZ1KW3pI" name="option-2">
    <mxGraphModel dx="1050" dy="661" grid="1" gridSize="10" guides="1" tooltips="1" connect="1" arrows="1" fold="1" page="1" pageScale="1" pageWidth="1100" pageHeight="850" math="0" shadow="0">
      <root>
        <mxCell id="0" />
        <mxCell id="1" parent="0" />
        <mxCell id="33QZVExdqFNLATZnmr2U-38" style="edgeStyle=orthogonalEdgeStyle;rounded=0;orthogonalLoop=1;jettySize=auto;html=1;" edge="1" parent="1" source="33QZVExdqFNLATZnmr2U-1">
          <mxGeometry relative="1" as="geometry">
            <mxPoint x="410" y="175" as="targetPoint" />
          </mxGeometry>
        </mxCell>
        <mxCell id="33QZVExdqFNLATZnmr2U-1" value="" style="rounded=0;whiteSpace=wrap;html=1;fillColor=default;strokeColor=#6c8ebf;" vertex="1" parent="1">
          <mxGeometry x="140" y="140" width="170" height="70" as="geometry" />
        </mxCell>
        <mxCell id="33QZVExdqFNLATZnmr2U-2" style="edgeStyle=orthogonalEdgeStyle;rounded=0;orthogonalLoop=1;jettySize=auto;html=1;startArrow=none;" edge="1" parent="1" source="33QZVExdqFNLATZnmr2U-30" target="33QZVExdqFNLATZnmr2U-6">
          <mxGeometry relative="1" as="geometry">
            <Array as="points" />
          </mxGeometry>
        </mxCell>
        <mxCell id="33QZVExdqFNLATZnmr2U-3" value="Informatica C360 SaaS" style="html=1;overflow=block;blockSpacing=1;whiteSpace=wrap;fontSize=16.7;fontColor=#3a414a;spacing=9;strokeColor=#3a414a;strokeOpacity=100;fillOpacity=100;rounded=1;absoluteArcSize=1;arcSize=9;fillColor=#ffdda6;strokeWidth=0.8;lucidId=FAfvqJk8E.Ea;" vertex="1" parent="1">
          <mxGeometry x="700" y="130" width="195" height="90" as="geometry" />
        </mxCell>
        <mxCell id="33QZVExdqFNLATZnmr2U-5" value="INGRESS JOB" style="overflow=block;blockSpacing=1;whiteSpace=wrap;aspect=fixed;html=1;points=[];align=center;verticalAlign=top;image;image=img/lib/mscae/Data_Box.svg;fontSize=13;spacing=0;strokeColor=#3a414a;strokeOpacity=100;rounded=1;absoluteArcSize=1;arcSize=9;fillColor=#45ADD2;strokeWidth=0.8;lucidId=rtmv1XBsKIsu;" vertex="1" parent="1">
          <mxGeometry x="610" y="74" width="58.6" height="56" as="geometry" />
        </mxCell>
        <mxCell id="33QZVExdqFNLATZnmr2U-6" value="TBA on-prem" style="html=1;overflow=block;blockSpacing=1;whiteSpace=wrap;rounded=1;arcSize=50;fontSize=16.7;fontColor=#3a414a;spacing=3.8;strokeColor=#3a414a;strokeOpacity=100;fillOpacity=100;fillColor=default;strokeWidth=0.8;lucidId=_zfvtoaLD8R3;" vertex="1" parent="1">
          <mxGeometry x="60" y="450" width="120" height="60" as="geometry" />
        </mxCell>
        <mxCell id="33QZVExdqFNLATZnmr2U-7" value="EGRESS JOBS&amp;nbsp;" style="overflow=block;blockSpacing=1;whiteSpace=wrap;aspect=fixed;html=1;points=[];align=center;verticalAlign=top;image;image=img/lib/mscae/Data_Box.svg;fontSize=13;spacing=0;strokeColor=#3a414a;strokeOpacity=100;rounded=1;absoluteArcSize=1;arcSize=9;fillColor=#45ADD2;strokeWidth=0.8;lucidId=rtmv1XBsKIsu;" vertex="1" parent="1">
          <mxGeometry x="700" y="310" width="63.84" height="61" as="geometry" />
        </mxCell>
        <mxCell id="33QZVExdqFNLATZnmr2U-8" value="Created and updated Golden Records" style="shape=note2;boundedLbl=1;whiteSpace=wrap;html=1;size=13;verticalAlign=top;align=center;fontSize=13;" vertex="1" parent="1">
          <mxGeometry x="830" y="240" width="120" height="80" as="geometry" />
        </mxCell>
        <mxCell id="33QZVExdqFNLATZnmr2U-9" value="MDM_ID and all the consolidated attribute for person (B2C) and organization (B2B)" style="shape=note;whiteSpace=wrap;html=1;backgroundOutline=1;darkOpacity=0.05;strokeColor=#da1010;fontSize=13;size=16;" vertex="1" parent="1">
          <mxGeometry x="830" y="347" width="120" height="113" as="geometry" />
        </mxCell>
        <mxCell id="33QZVExdqFNLATZnmr2U-11" value="" style="html=1;overflow=block;blockSpacing=1;whiteSpace=wrap;shape=image;fontSize=13;spacing=3.8;strokeColor=none;strokeOpacity=100;strokeWidth=0;image=https://images.lucid.app/images/98843362-60f4-46ee-85de-753dc02aa09e/content;lucidId=MXlvsj6demjr;" vertex="1" parent="1">
          <mxGeometry x="820" y="66" width="72" height="72" as="geometry" />
        </mxCell>
        <mxCell id="33QZVExdqFNLATZnmr2U-12" value="" style="html=1;jettySize=18;whiteSpace=wrap;fontSize=13;strokeColor=#3a414a;strokeOpacity=100;strokeWidth=0.8;rounded=1;arcSize=12;edgeStyle=orthogonalEdgeStyle;startArrow=none;endArrow=block;endFill=1;lucidId=~YlvwF8hCNBU;" edge="1" parent="1" target="33QZVExdqFNLATZnmr2U-11">
          <mxGeometry width="100" height="100" relative="1" as="geometry">
            <Array as="points" />
            <mxPoint x="838" y="60" as="targetPoint" />
            <mxPoint x="770" y="60" as="sourcePoint" />
          </mxGeometry>
        </mxCell>
        <mxCell id="33QZVExdqFNLATZnmr2U-13" value="Relationship" style="text;html=1;resizable=0;labelBackgroundColor=default;align=center;verticalAlign=middle;fontStyle=1;fontColor=#333333;fontSize=13.3;" vertex="1" parent="33QZVExdqFNLATZnmr2U-12">
          <mxGeometry relative="1" as="geometry">
            <mxPoint x="-5" y="-18" as="offset" />
          </mxGeometry>
        </mxCell>
        <mxCell id="33QZVExdqFNLATZnmr2U-14" value="AWS S3 Connectors" style="html=1;overflow=block;blockSpacing=1;whiteSpace=wrap;fontSize=13;spacing=0;strokeColor=#6c8ebf;strokeOpacity=100;fillOpacity=100;fillColor=#dae8fc;strokeWidth=0.8;lucidId=bUlvSHZIWZw~;" vertex="1" parent="1">
          <mxGeometry x="397.5" y="244" width="95" height="60" as="geometry" />
        </mxCell>
        <mxCell id="33QZVExdqFNLATZnmr2U-15" value="" style="strokeColor=none;fillColor=none;whiteSpace=wrap;fontSize=12;fontColor=#3a414a;spacing=3.8;strokeOpacity=100;rounded=1;absoluteArcSize=1;arcSize=9;strokeWidth=0.8;html=1;" vertex="1" parent="1">
          <mxGeometry x="500" y="220" width="125" height="66" as="geometry" />
        </mxCell>
        <mxCell id="33QZVExdqFNLATZnmr2U-16" value="" style="shape=curlyBracket;rounded=1;flipH=1;whiteSpace=wrap;fontSize=16.7;fontColor=#3a414a;spacing=3.8;strokeColor=#3a414a;strokeOpacity=100;strokeWidth=0.8;" vertex="1" parent="33QZVExdqFNLATZnmr2U-15">
          <mxGeometry x="6" width="8.25" height="66" as="geometry" />
        </mxCell>
        <mxCell id="33QZVExdqFNLATZnmr2U-17" value="Connects  S3 bucket to C360 SaaS" style="strokeColor=none;fillColor=none;whiteSpace=wrap;fontSize=13;fontColor=#3a414a;spacing=3.8;strokeOpacity=100;rounded=1;absoluteArcSize=1;arcSize=9;strokeWidth=0.8;" vertex="1" parent="33QZVExdqFNLATZnmr2U-15">
          <mxGeometry x="15.25" width="116.75" height="66" as="geometry" />
        </mxCell>
        <mxCell id="33QZVExdqFNLATZnmr2U-18" value="" style="strokeColor=none;fillColor=none;whiteSpace=wrap;fontSize=16.7;fontColor=#3a414a;spacing=3.8;strokeOpacity=100;rounded=1;absoluteArcSize=1;arcSize=9;strokeWidth=0.8;html=1;" vertex="1" parent="1">
          <mxGeometry x="538" y="395" width="125" height="66" as="geometry" />
        </mxCell>
        <mxCell id="33QZVExdqFNLATZnmr2U-19" value="" style="shape=curlyBracket;rounded=1;flipH=1;whiteSpace=wrap;fontSize=16.7;fontColor=#3a414a;spacing=3.8;strokeColor=#3a414a;strokeOpacity=100;strokeWidth=0.8;" vertex="1" parent="33QZVExdqFNLATZnmr2U-18">
          <mxGeometry width="8.25" height="66" as="geometry" />
        </mxCell>
        <mxCell id="33QZVExdqFNLATZnmr2U-20" value="Connects C360 SaaS to S3 bucket" style="strokeColor=none;fillColor=none;whiteSpace=wrap;fontSize=13;fontColor=#3a414a;spacing=3.8;strokeOpacity=100;rounded=1;absoluteArcSize=1;arcSize=9;strokeWidth=0.8;" vertex="1" parent="33QZVExdqFNLATZnmr2U-18">
          <mxGeometry x="8.25" width="116.75" height="66" as="geometry" />
        </mxCell>
        <mxCell id="33QZVExdqFNLATZnmr2U-21" value="Daily delta/full" style="text;html=1;strokeColor=none;fillColor=none;align=center;verticalAlign=middle;whiteSpace=wrap;rounded=0;fontStyle=1" vertex="1" parent="1">
          <mxGeometry x="668.5999999999999" y="410" width="120" height="30" as="geometry" />
        </mxCell>
        <mxCell id="33QZVExdqFNLATZnmr2U-22" value="Daily job" style="text;html=1;strokeColor=none;fillColor=none;align=center;verticalAlign=middle;whiteSpace=wrap;rounded=0;fontStyle=1" vertex="1" parent="1">
          <mxGeometry x="579.9999999999999" y="30" width="120" height="30" as="geometry" />
        </mxCell>
        <mxCell id="33QZVExdqFNLATZnmr2U-23" value="AWS 3 connectors" style="html=1;overflow=block;blockSpacing=1;whiteSpace=wrap;fontSize=13;spacing=0;strokeColor=#6c8ebf;strokeOpacity=100;fillOpacity=100;fillColor=#dae8fc;strokeWidth=0.8;lucidId=bUlvSHZIWZw~;" vertex="1" parent="1">
          <mxGeometry x="415" y="389" width="95" height="60" as="geometry" />
        </mxCell>
        <mxCell id="33QZVExdqFNLATZnmr2U-24" value="" style="edgeStyle=orthogonalEdgeStyle;rounded=0;orthogonalLoop=1;jettySize=auto;html=1;endArrow=none;entryX=1;entryY=0.5;entryDx=0;entryDy=0;entryPerimeter=0;" edge="1" parent="1" source="33QZVExdqFNLATZnmr2U-3">
          <mxGeometry relative="1" as="geometry">
            <Array as="points">
              <mxPoint x="798" y="480" />
              <mxPoint x="550" y="480" />
            </Array>
            <mxPoint x="798" y="220" as="sourcePoint" />
            <mxPoint x="487.5" y="479.25" as="targetPoint" />
          </mxGeometry>
        </mxCell>
        <mxCell id="33QZVExdqFNLATZnmr2U-26" value="EC2 Instance (AWS)" style="strokeColor=none;fillColor=none;whiteSpace=wrap;fontSize=13;fontColor=#3a414a;spacing=3.8;strokeOpacity=100;rounded=1;absoluteArcSize=1;arcSize=9;strokeWidth=0.8;" vertex="1" parent="1">
          <mxGeometry x="492" y="134" width="116.75" height="40" as="geometry" />
        </mxCell>
        <mxCell id="33QZVExdqFNLATZnmr2U-27" style="edgeStyle=orthogonalEdgeStyle;rounded=0;orthogonalLoop=1;jettySize=auto;html=1;" edge="1" parent="1" target="33QZVExdqFNLATZnmr2U-3">
          <mxGeometry relative="1" as="geometry">
            <mxPoint x="470" y="175.5" as="sourcePoint" />
          </mxGeometry>
        </mxCell>
        <mxCell id="33QZVExdqFNLATZnmr2U-29" value="" style="edgeStyle=orthogonalEdgeStyle;rounded=0;orthogonalLoop=1;jettySize=auto;html=1;startArrow=none;endArrow=none;" edge="1" parent="1" target="33QZVExdqFNLATZnmr2U-30">
          <mxGeometry relative="1" as="geometry">
            <Array as="points" />
            <mxPoint x="437.5" y="479.29999999999995" as="sourcePoint" />
            <mxPoint x="200" y="479" as="targetPoint" />
          </mxGeometry>
        </mxCell>
        <mxCell id="33QZVExdqFNLATZnmr2U-30" value="Downstream application" style="rounded=0;whiteSpace=wrap;html=1;" vertex="1" parent="1">
          <mxGeometry x="250" y="450" width="120" height="60" as="geometry" />
        </mxCell>
        <mxCell id="33QZVExdqFNLATZnmr2U-31" value="Application is maintained by TBA" style="shape=note;whiteSpace=wrap;html=1;backgroundOutline=1;darkOpacity=0.05;fillColor=#fff2cc;strokeColor=#d6b656;size=13;" vertex="1" parent="1">
          <mxGeometry x="270" y="530" width="80" height="80" as="geometry" />
        </mxCell>
        <mxCell id="33QZVExdqFNLATZnmr2U-32" value="Format of the publication" style="shape=note;whiteSpace=wrap;html=1;backgroundOutline=1;darkOpacity=0.05;fillColor=#fff2cc;strokeColor=#d6b656;size=13;" vertex="1" parent="1">
          <mxGeometry x="560.5" y="501.75" width="80" height="68.25" as="geometry" />
        </mxCell>
        <mxCell id="33QZVExdqFNLATZnmr2U-33" value="&lt;span style=&quot;color: rgb(58, 65, 74); font-family: Helvetica; font-size: 23px; font-style: normal; font-variant-ligatures: normal; font-variant-caps: normal; font-weight: 400; letter-spacing: normal; orphans: 2; text-align: center; text-indent: 0px; text-transform: none; widows: 2; word-spacing: 0px; -webkit-text-stroke-width: 0px; background-color: rgb(251, 251, 251); text-decoration-thickness: initial; text-decoration-style: initial; text-decoration-color: initial; float: none; display: inline !important;&quot;&gt;TBA on-prem&lt;/span&gt;" style="text;whiteSpace=wrap;html=1;fontSize=23;" vertex="1" parent="1">
          <mxGeometry x="160" y="155" width="140" height="40" as="geometry" />
        </mxCell>
        <mxCell id="33QZVExdqFNLATZnmr2U-34" value="Delta Updates" style="text;html=1;strokeColor=none;fillColor=none;align=center;verticalAlign=middle;whiteSpace=wrap;rounded=0;" vertex="1" parent="1">
          <mxGeometry x="330" y="125" width="60" height="30" as="geometry" />
        </mxCell>
        <mxCell id="33QZVExdqFNLATZnmr2U-37" value="Amazon S3" style="sketch=0;outlineConnect=0;fontColor=#232F3E;gradientColor=none;strokeColor=#ffffff;fillColor=#232F3E;dashed=0;verticalLabelPosition=middle;verticalAlign=bottom;align=center;html=1;whiteSpace=wrap;fontSize=10;fontStyle=1;spacing=3;shape=mxgraph.aws4.productIcon;prIcon=mxgraph.aws4.s3;" vertex="1" parent="1">
          <mxGeometry x="412.5" y="134" width="75" height="100" as="geometry" />
        </mxCell>
        <mxCell id="33QZVExdqFNLATZnmr2U-39" value="Amazon S3" style="sketch=0;outlineConnect=0;fontColor=#232F3E;gradientColor=none;strokeColor=#ffffff;fillColor=#232F3E;dashed=0;verticalLabelPosition=middle;verticalAlign=bottom;align=center;html=1;whiteSpace=wrap;fontSize=10;fontStyle=1;spacing=3;shape=mxgraph.aws4.productIcon;prIcon=mxgraph.aws4.s3;" vertex="1" parent="1">
          <mxGeometry x="437.5" y="459" width="55" height="71" as="geometry" />
        </mxCell>
        <mxCell id="FG9K0ecppAC3MM3nmcAN-1" value="" style="image;points=[];aspect=fixed;html=1;align=center;shadow=0;dashed=0;image=img/lib/allied_telesis/computer_and_terminals/Server_Desktop.svg;" vertex="1" parent="1">
          <mxGeometry x="529.08" y="75" width="42.599999999999994" height="54" as="geometry" />
        </mxCell>
        <mxCell id="fpIBKw20GGPE4b_xydZ5-1" value="Secure Agent" style="strokeColor=none;fillColor=none;whiteSpace=wrap;fontSize=13;fontColor=#3a414a;spacing=3.8;strokeOpacity=100;rounded=1;absoluteArcSize=1;arcSize=9;strokeWidth=0.8;" vertex="1" parent="1">
          <mxGeometry x="487.5" y="30" width="116.75" height="40" as="geometry" />
        </mxCell>
        <mxCell id="cWhrr_YGGOTYgEr_hmNp-1" value="Customers&lt;div&gt;(B2B,&amp;nbsp;&lt;span style=&quot;background-color: initial;&quot;&gt;B2C)&lt;/span&gt;&lt;/div&gt;" style="html=1;overflow=block;blockSpacing=1;whiteSpace=wrap;fontSize=13;spacing=0;strokeColor=#9673a6;strokeOpacity=100;rounded=1;absoluteArcSize=1;arcSize=9;fillColor=#e1d5e7;strokeWidth=0.8;lucidId=Y6fv7KWgEG-H;" vertex="1" parent="1">
          <mxGeometry x="700" y="50" width="72.42" height="58" as="geometry" />
        </mxCell>
        <mxCell id="JIjPr_XKXCbL7PN_Sfo1-1" value="EC2 Instance (AWS)" style="strokeColor=none;fillColor=none;whiteSpace=wrap;fontSize=13;fontColor=#3a414a;spacing=3.8;strokeOpacity=100;rounded=1;absoluteArcSize=1;arcSize=9;strokeWidth=0.8;" vertex="1" parent="1">
          <mxGeometry x="655.67" y="553" width="116.75" height="40" as="geometry" />
        </mxCell>
        <mxCell id="JIjPr_XKXCbL7PN_Sfo1-2" value="" style="image;points=[];aspect=fixed;html=1;align=center;shadow=0;dashed=0;image=img/lib/allied_telesis/computer_and_terminals/Server_Desktop.svg;" vertex="1" parent="1">
          <mxGeometry x="692.75" y="494" width="42.599999999999994" height="54" as="geometry" />
        </mxCell>
        <mxCell id="JIjPr_XKXCbL7PN_Sfo1-3" value="Secure Agent" style="strokeColor=none;fillColor=none;whiteSpace=wrap;fontSize=13;fontColor=#3a414a;spacing=3.8;strokeOpacity=100;rounded=1;absoluteArcSize=1;arcSize=9;strokeWidth=0.8;" vertex="1" parent="1">
          <mxGeometry x="651.17" y="449" width="116.75" height="40" as="geometry" />
        </mxCell>
      </root>
    </mxGraphModel>
  </diagram>
  <diagram id="UQaPTLi3r7HSmBNc4bOR" name="option-3">
    <mxGraphModel dx="1050" dy="661" grid="1" gridSize="10" guides="1" tooltips="1" connect="1" arrows="1" fold="1" page="1" pageScale="1" pageWidth="1100" pageHeight="850" math="0" shadow="0">
      <root>
        <mxCell id="0" />
        <mxCell id="1" parent="0" />
        <mxCell id="SV_L0hvyP7PEhbChsQPp-4" style="edgeStyle=orthogonalEdgeStyle;rounded=0;orthogonalLoop=1;jettySize=auto;html=1;dashed=1;" edge="1" parent="1" source="SV_L0hvyP7PEhbChsQPp-6" target="SV_L0hvyP7PEhbChsQPp-61">
          <mxGeometry relative="1" as="geometry">
            <mxPoint x="700" y="410" as="targetPoint" />
            <Array as="points">
              <mxPoint x="740" y="410" />
            </Array>
          </mxGeometry>
        </mxCell>
        <mxCell id="SV_L0hvyP7PEhbChsQPp-5" value="MDM_ID,SRC_ID" style="edgeLabel;html=1;align=center;verticalAlign=middle;resizable=0;points=[];" vertex="1" connectable="0" parent="SV_L0hvyP7PEhbChsQPp-4">
          <mxGeometry x="-0.6353" relative="1" as="geometry">
            <mxPoint as="offset" />
          </mxGeometry>
        </mxCell>
        <mxCell id="SV_L0hvyP7PEhbChsQPp-6" value="" style="rounded=0;whiteSpace=wrap;html=1;fillColor=#fff2cc;strokeColor=#d6b656;" vertex="1" parent="1">
          <mxGeometry x="560" y="80" width="190" height="200" as="geometry" />
        </mxCell>
        <mxCell id="SV_L0hvyP7PEhbChsQPp-9" value="TBA On-Prem" style="html=1;overflow=block;blockSpacing=1;whiteSpace=wrap;rounded=1;arcSize=35;fontSize=16.7;fontColor=#3a414a;spacing=3.8;strokeColor=#3a414a;strokeOpacity=100;fillOpacity=100;fillColor=#cfe4ff;strokeWidth=0.8;lucidId=_zfvtoaLD8R3;" vertex="1" parent="1">
          <mxGeometry x="217" y="201" width="120" height="60" as="geometry" />
        </mxCell>
        <mxCell id="SV_L0hvyP7PEhbChsQPp-10" style="edgeStyle=orthogonalEdgeStyle;rounded=0;orthogonalLoop=1;jettySize=auto;html=1;exitX=0.75;exitY=0;exitDx=0;exitDy=0;entryX=0;entryY=0.5;entryDx=0;entryDy=0;fontSize=13;fontColor=#030303;dashed=1;" edge="1" parent="1" source="SV_L0hvyP7PEhbChsQPp-13" target="SV_L0hvyP7PEhbChsQPp-55">
          <mxGeometry relative="1" as="geometry">
            <mxPoint x="584" y="107.5" as="targetPoint" />
          </mxGeometry>
        </mxCell>
        <mxCell id="SV_L0hvyP7PEhbChsQPp-11" style="edgeStyle=orthogonalEdgeStyle;rounded=0;orthogonalLoop=1;jettySize=auto;html=1;entryX=0.25;entryY=1;entryDx=0;entryDy=0;" edge="1" parent="1" source="SV_L0hvyP7PEhbChsQPp-13" target="SV_L0hvyP7PEhbChsQPp-17">
          <mxGeometry relative="1" as="geometry">
            <Array as="points">
              <mxPoint x="496" y="350" />
              <mxPoint x="821" y="350" />
            </Array>
          </mxGeometry>
        </mxCell>
        <mxCell id="SV_L0hvyP7PEhbChsQPp-12" value="UPDATE&amp;nbsp; / DELETE" style="edgeLabel;html=1;align=center;verticalAlign=middle;resizable=0;points=[];" vertex="1" connectable="0" parent="SV_L0hvyP7PEhbChsQPp-11">
          <mxGeometry x="-0.1283" relative="1" as="geometry">
            <mxPoint as="offset" />
          </mxGeometry>
        </mxCell>
        <mxCell id="SV_L0hvyP7PEhbChsQPp-13" value="Informatica Cloud Application Integration" style="html=1;overflow=block;blockSpacing=1;whiteSpace=wrap;shape=process;fontSize=13;fontColor=#3a414a;spacing=3.8;strokeColor=#3a414a;strokeOpacity=100;fillOpacity=100;rounded=1;absoluteArcSize=1;arcSize=9;fillColor=#b8f5ed;strokeWidth=0.8;lucidId=kAfvMmEvo7Zt;" vertex="1" parent="1">
          <mxGeometry x="442" y="186" width="108" height="90" as="geometry" />
        </mxCell>
        <mxCell id="SV_L0hvyP7PEhbChsQPp-15" style="edgeStyle=orthogonalEdgeStyle;rounded=0;orthogonalLoop=1;jettySize=auto;html=1;entryX=0.5;entryY=0;entryDx=0;entryDy=0;" edge="1" parent="1">
          <mxGeometry relative="1" as="geometry">
            <mxPoint x="967" y="232" as="sourcePoint" />
            <mxPoint x="1027" y="251" as="targetPoint" />
          </mxGeometry>
        </mxCell>
        <mxCell id="SV_L0hvyP7PEhbChsQPp-16" style="edgeStyle=orthogonalEdgeStyle;rounded=0;orthogonalLoop=1;jettySize=auto;html=1;exitX=0;exitY=0.25;exitDx=0;exitDy=0;entryX=1.016;entryY=0.626;entryDx=0;entryDy=0;entryPerimeter=0;dashed=1;" edge="1" parent="1" source="SV_L0hvyP7PEhbChsQPp-17" target="SV_L0hvyP7PEhbChsQPp-6">
          <mxGeometry relative="1" as="geometry" />
        </mxCell>
        <mxCell id="SV_L0hvyP7PEhbChsQPp-17" value="Informatica C360 SaaS" style="html=1;overflow=block;blockSpacing=1;whiteSpace=wrap;fontSize=16.7;fontColor=#3a414a;spacing=9;strokeColor=#3a414a;strokeOpacity=100;fillOpacity=100;rounded=1;absoluteArcSize=1;arcSize=9;fillColor=#ffdda6;strokeWidth=0.8;lucidId=FAfvqJk8E.Ea;" vertex="1" parent="1">
          <mxGeometry x="772" y="186" width="195" height="90" as="geometry" />
        </mxCell>
        <mxCell id="SV_L0hvyP7PEhbChsQPp-18" value="" style="html=1;jettySize=18;whiteSpace=wrap;fontSize=13;strokeColor=#3a414a;strokeOpacity=100;strokeWidth=0.8;rounded=1;arcSize=12;edgeStyle=orthogonalEdgeStyle;startArrow=none;endArrow=block;endFill=1;exitX=1.003;exitY=0.5;exitPerimeter=0;entryX=-0.002;entryY=0.5;entryPerimeter=0;lucidId=RAfvrp491s3M;" edge="1" parent="1" source="SV_L0hvyP7PEhbChsQPp-9" target="SV_L0hvyP7PEhbChsQPp-13">
          <mxGeometry width="100" height="100" relative="1" as="geometry">
            <Array as="points" />
          </mxGeometry>
        </mxCell>
        <mxCell id="SV_L0hvyP7PEhbChsQPp-19" value="&lt;font style=&quot;font-size: 11px;&quot;&gt;Attributes to publish&lt;/font&gt;" style="html=1;overflow=block;blockSpacing=1;whiteSpace=wrap;shape=mxgraph.aws4.attributes;verticalLabelPosition=bottom;align=center;verticalAlign=top;pointerEvents=1;fontSize=16.7;fontColor=#3a414a;spacing=0;strokeColor=#3a414a;strokeOpacity=100;rounded=1;absoluteArcSize=1;arcSize=9;fillColor=#3b48cc;strokeWidth=0.8;lucidId=GWfvRAXIjcSH;" vertex="1" parent="1">
          <mxGeometry x="917" y="100" width="50" height="49" as="geometry" />
        </mxCell>
        <mxCell id="SV_L0hvyP7PEhbChsQPp-20" value="" style="strokeColor=none;fillColor=none;whiteSpace=wrap;fontSize=16.7;fontColor=#3a414a;spacing=3.8;strokeOpacity=100;rounded=1;absoluteArcSize=1;arcSize=9;strokeWidth=0.8;html=1;" vertex="1" parent="1">
          <mxGeometry x="390" y="270" width="67.75999999999999" height="89" as="geometry" />
        </mxCell>
        <mxCell id="SV_L0hvyP7PEhbChsQPp-21" value="" style="shape=curlyBracket;rounded=1;flipH=1;whiteSpace=wrap;fontSize=16.7;fontColor=#3a414a;spacing=3.8;strokeColor=#3a414a;strokeOpacity=100;strokeWidth=0.8;" vertex="1" parent="SV_L0hvyP7PEhbChsQPp-20">
          <mxGeometry width="11.125" height="89" as="geometry" />
        </mxCell>
        <mxCell id="SV_L0hvyP7PEhbChsQPp-22" value="Data Mapping" style="strokeColor=none;fillColor=none;whiteSpace=wrap;fontSize=16.7;fontColor=#3a414a;spacing=3.8;strokeOpacity=100;rounded=1;absoluteArcSize=1;arcSize=9;strokeWidth=0.8;" vertex="1" parent="SV_L0hvyP7PEhbChsQPp-20">
          <mxGeometry x="28.88499999999999" width="38.875" height="89" as="geometry" />
        </mxCell>
        <mxCell id="SV_L0hvyP7PEhbChsQPp-23" value="&lt;font style=&quot;font-size: 9px;&quot;&gt;Secured Agent&lt;/font&gt;" style="html=1;overflow=block;blockSpacing=1;whiteSpace=wrap;shape=mxgraph.aws4.agent2;labelPosition=center;verticalLabelPosition=bottom;align=center;verticalAlign=top;pointerEvents=1;fontSize=15;fontColor=#3a414a;spacing=0;strokeColor=#3a414a;strokeOpacity=100;rounded=1;absoluteArcSize=1;arcSize=9;fillColor=#1c7b68;strokeWidth=0.8;lucidId=V0fvz383fF~9;" vertex="1" parent="1">
          <mxGeometry x="337" y="156" width="38" height="32" as="geometry" />
        </mxCell>
        <mxCell id="SV_L0hvyP7PEhbChsQPp-24" value="Customers" style="html=1;overflow=block;blockSpacing=1;whiteSpace=wrap;fontSize=13;spacing=0;strokeColor=#3a414a;strokeOpacity=100;rounded=1;absoluteArcSize=1;arcSize=9;fillColor=#0078d4;strokeWidth=0.8;lucidId=Y6fv7KWgEG-H;" vertex="1" parent="1">
          <mxGeometry x="832" y="294" width="68" height="46" as="geometry" />
        </mxCell>
        <mxCell id="SV_L0hvyP7PEhbChsQPp-25" value="" style="html=1;jettySize=18;whiteSpace=wrap;fontSize=13;strokeColor=#b0084d;strokeOpacity=100;strokeWidth=0.8;rounded=1;arcSize=12;edgeStyle=orthogonalEdgeStyle;startArrow=none;endArrow=block;endFill=1;exitX=1.002;exitY=0.5;exitPerimeter=0;entryX=-0.003;entryY=0.5;entryPerimeter=0;lucidId=pPkv3rIOr2aS;" edge="1" parent="1" source="SV_L0hvyP7PEhbChsQPp-32" target="SV_L0hvyP7PEhbChsQPp-9">
          <mxGeometry width="100" height="100" relative="1" as="geometry">
            <Array as="points">
              <mxPoint x="120" y="231" />
            </Array>
          </mxGeometry>
        </mxCell>
        <mxCell id="SV_L0hvyP7PEhbChsQPp-26" value="" style="html=1;overflow=block;blockSpacing=1;whiteSpace=wrap;shape=image;fontSize=13;spacing=3.8;strokeColor=none;strokeOpacity=100;strokeWidth=0;image=https://images.lucid.app/images/98843362-60f4-46ee-85de-753dc02aa09e/content;lucidId=MXlvsj6demjr;" vertex="1" parent="1">
          <mxGeometry x="910" y="281" width="72" height="72" as="geometry" />
        </mxCell>
        <mxCell id="SV_L0hvyP7PEhbChsQPp-27" value="Vehicle" style="html=1;overflow=block;blockSpacing=1;whiteSpace=wrap;fontSize=15;fontColor=#3a414a;spacing=3.8;strokeOpacity=0;fillOpacity=0;rounded=1;absoluteArcSize=1;arcSize=9;fillColor=#ffffff;strokeWidth=0.8;lucidId=9XlvQF2a5Y8r;" vertex="1" parent="1">
          <mxGeometry x="864" y="337" width="103" height="27" as="geometry" />
        </mxCell>
        <mxCell id="SV_L0hvyP7PEhbChsQPp-28" value="" style="html=1;jettySize=18;whiteSpace=wrap;fontSize=13;strokeColor=#3a414a;strokeOpacity=100;strokeWidth=0.8;rounded=1;arcSize=12;edgeStyle=orthogonalEdgeStyle;startArrow=none;endArrow=block;endFill=1;exitX=0.5;exitY=0.997;exitPerimeter=0;entryX=0.5;entryY=1;entryPerimeter=0;lucidId=~YlvwF8hCNBU;" edge="1" parent="1" source="SV_L0hvyP7PEhbChsQPp-24" target="SV_L0hvyP7PEhbChsQPp-27">
          <mxGeometry width="100" height="100" relative="1" as="geometry">
            <Array as="points" />
          </mxGeometry>
        </mxCell>
        <mxCell id="SV_L0hvyP7PEhbChsQPp-29" value="Relationship" style="text;html=1;resizable=0;labelBackgroundColor=default;align=center;verticalAlign=middle;fontStyle=1;fontColor=#333333;fontSize=13.3;" vertex="1" parent="SV_L0hvyP7PEhbChsQPp-28">
          <mxGeometry relative="1" as="geometry" />
        </mxCell>
        <mxCell id="SV_L0hvyP7PEhbChsQPp-31" style="edgeStyle=orthogonalEdgeStyle;rounded=0;orthogonalLoop=1;jettySize=auto;html=1;fontSize=13;" edge="1" parent="1" source="SV_L0hvyP7PEhbChsQPp-61" target="SV_L0hvyP7PEhbChsQPp-32">
          <mxGeometry relative="1" as="geometry">
            <mxPoint x="580" y="425" as="sourcePoint" />
            <Array as="points">
              <mxPoint x="560" y="424" />
              <mxPoint x="560" y="424" />
            </Array>
          </mxGeometry>
        </mxCell>
        <mxCell id="SV_L0hvyP7PEhbChsQPp-32" value="Lamda Service" style="rounded=0;whiteSpace=wrap;html=1;fontSize=13;" vertex="1" parent="1">
          <mxGeometry x="288.88" y="391.75" width="130" height="65" as="geometry" />
        </mxCell>
        <mxCell id="SV_L0hvyP7PEhbChsQPp-34" value="&lt;font style=&quot;font-size: 13px;&quot;&gt;Attributes to ingest&lt;/font&gt;" style="html=1;overflow=block;blockSpacing=1;whiteSpace=wrap;shape=mxgraph.aws4.attributes;verticalLabelPosition=bottom;align=center;verticalAlign=top;pointerEvents=1;fontSize=16.7;fontColor=#3a414a;spacing=0;strokeColor=#3a414a;strokeOpacity=100;rounded=1;absoluteArcSize=1;arcSize=9;fillColor=#3b48cc;strokeWidth=0.8;lucidId=bUlvYQVKywe3;" vertex="1" parent="1">
          <mxGeometry x="320" y="283" width="50" height="49" as="geometry" />
        </mxCell>
        <mxCell id="SV_L0hvyP7PEhbChsQPp-35" value="" style="shape=curlyBracket;whiteSpace=wrap;html=1;rounded=1;labelPosition=left;verticalLabelPosition=middle;align=right;verticalAlign=middle;fontSize=12;" vertex="1" parent="1">
          <mxGeometry x="880" y="94" width="20" height="61" as="geometry" />
        </mxCell>
        <mxCell id="SV_L0hvyP7PEhbChsQPp-36" value="Data Mapping" style="strokeColor=none;fillColor=none;whiteSpace=wrap;fontSize=16.7;fontColor=#3a414a;spacing=3.8;strokeOpacity=100;rounded=1;absoluteArcSize=1;arcSize=9;strokeWidth=0.8;" vertex="1" parent="1">
          <mxGeometry x="825.125" y="80" width="38.875" height="89" as="geometry" />
        </mxCell>
        <mxCell id="SV_L0hvyP7PEhbChsQPp-37" value="B360 Connector" style="rounded=0;whiteSpace=wrap;html=1;" vertex="1" parent="1">
          <mxGeometry x="772" y="47" width="120" height="50" as="geometry" />
        </mxCell>
        <mxCell id="SV_L0hvyP7PEhbChsQPp-38" style="edgeStyle=orthogonalEdgeStyle;rounded=0;orthogonalLoop=1;jettySize=auto;html=1;dashed=1;" edge="1" parent="1" source="SV_L0hvyP7PEhbChsQPp-40" target="SV_L0hvyP7PEhbChsQPp-9">
          <mxGeometry relative="1" as="geometry" />
        </mxCell>
        <mxCell id="SV_L0hvyP7PEhbChsQPp-39" value="Create" style="edgeLabel;html=1;align=center;verticalAlign=middle;resizable=0;points=[];" vertex="1" connectable="0" parent="SV_L0hvyP7PEhbChsQPp-38">
          <mxGeometry x="-0.2806" y="3" relative="1" as="geometry">
            <mxPoint as="offset" />
          </mxGeometry>
        </mxCell>
        <mxCell id="SV_L0hvyP7PEhbChsQPp-40" value="user" style="shape=umlActor;verticalLabelPosition=bottom;verticalAlign=top;html=1;outlineConnect=0;" vertex="1" parent="1">
          <mxGeometry x="80" y="60" width="30" height="60" as="geometry" />
        </mxCell>
        <mxCell id="SV_L0hvyP7PEhbChsQPp-41" style="edgeStyle=orthogonalEdgeStyle;rounded=0;orthogonalLoop=1;jettySize=auto;html=1;exitX=0.5;exitY=1;exitDx=0;exitDy=0;" edge="1" parent="1" target="SV_L0hvyP7PEhbChsQPp-61">
          <mxGeometry relative="1" as="geometry">
            <Array as="points">
              <mxPoint x="1027" y="424" />
            </Array>
            <mxPoint x="997" y="424" as="targetPoint" />
            <mxPoint x="1027" y="330" as="sourcePoint" />
          </mxGeometry>
        </mxCell>
        <mxCell id="SV_L0hvyP7PEhbChsQPp-42" value="DELTA - Daily" style="shape=card;whiteSpace=wrap;html=1;fillColor=#e1d5e7;strokeColor=#9673a6;size=16;" vertex="1" parent="1">
          <mxGeometry x="880" y="432" width="140" height="38" as="geometry" />
        </mxCell>
        <mxCell id="SV_L0hvyP7PEhbChsQPp-44" value="Sync Process using Lamda" style="text;html=1;strokeColor=none;fillColor=none;align=center;verticalAlign=middle;whiteSpace=wrap;rounded=0;" vertex="1" parent="1">
          <mxGeometry x="157" y="156" width="120" height="30" as="geometry" />
        </mxCell>
        <mxCell id="SV_L0hvyP7PEhbChsQPp-45" value="All the attributes of TBA.&amp;nbsp;&lt;br&gt;&lt;i&gt;Any Additional attributes is under discussion&lt;/i&gt;" style="shape=note;whiteSpace=wrap;html=1;backgroundOutline=1;darkOpacity=0.05;align=left;size=15;" vertex="1" parent="1">
          <mxGeometry x="987" y="40" width="98" height="120" as="geometry" />
        </mxCell>
        <mxCell id="SV_L0hvyP7PEhbChsQPp-49" value="Lamda service is owned by TBA" style="shape=note;whiteSpace=wrap;html=1;backgroundOutline=1;darkOpacity=0.05;align=left;" vertex="1" parent="1">
          <mxGeometry x="12" y="165" width="98" height="85" as="geometry" />
        </mxCell>
        <mxCell id="SV_L0hvyP7PEhbChsQPp-50" value="&lt;br&gt;Need to know the delta volume per day" style="shape=note;whiteSpace=wrap;html=1;backgroundOutline=1;darkOpacity=0.05;align=left;" vertex="1" parent="1">
          <mxGeometry x="12" y="270" width="98" height="103" as="geometry" />
        </mxCell>
        <mxCell id="SV_L0hvyP7PEhbChsQPp-51" style="edgeStyle=orthogonalEdgeStyle;rounded=0;orthogonalLoop=1;jettySize=auto;html=1;fontSize=11;fontColor=#030303;" edge="1" parent="1" source="SV_L0hvyP7PEhbChsQPp-52" target="SV_L0hvyP7PEhbChsQPp-17">
          <mxGeometry relative="1" as="geometry">
            <Array as="points">
              <mxPoint x="750" y="236" />
              <mxPoint x="750" y="236" />
            </Array>
          </mxGeometry>
        </mxCell>
        <mxCell id="SV_L0hvyP7PEhbChsQPp-52" value="&lt;font style=&quot;font-size: 11px;&quot;&gt;Merge API&lt;br&gt;&lt;/font&gt;" style="whiteSpace=wrap;html=1;fontSize=13;fillColor=none;fontColor=#030303;fillStyle=auto;" vertex="1" parent="1">
          <mxGeometry x="660" y="180" width="84" height="29" as="geometry" />
        </mxCell>
        <mxCell id="SV_L0hvyP7PEhbChsQPp-53" style="edgeStyle=orthogonalEdgeStyle;rounded=0;orthogonalLoop=1;jettySize=auto;html=1;fontSize=11;fontColor=#030303;exitX=1;exitY=0.5;exitDx=0;exitDy=0;" edge="1" parent="1" source="SV_L0hvyP7PEhbChsQPp-56" target="SV_L0hvyP7PEhbChsQPp-52">
          <mxGeometry relative="1" as="geometry">
            <Array as="points">
              <mxPoint x="665" y="240" />
              <mxPoint x="684" y="240" />
            </Array>
          </mxGeometry>
        </mxCell>
        <mxCell id="SV_L0hvyP7PEhbChsQPp-54" style="edgeStyle=orthogonalEdgeStyle;rounded=0;orthogonalLoop=1;jettySize=auto;html=1;entryX=0.25;entryY=0;entryDx=0;entryDy=0;" edge="1" parent="1" source="SV_L0hvyP7PEhbChsQPp-55" target="SV_L0hvyP7PEhbChsQPp-56">
          <mxGeometry relative="1" as="geometry" />
        </mxCell>
        <mxCell id="SV_L0hvyP7PEhbChsQPp-55" value="Search Match API" style="rounded=0;whiteSpace=wrap;html=1;fillStyle=auto;fontSize=11;fontColor=#030303;fillColor=none;" vertex="1" parent="1">
          <mxGeometry x="570" y="115" width="70" height="55" as="geometry" />
        </mxCell>
        <mxCell id="SV_L0hvyP7PEhbChsQPp-56" value="Insert API with business entity (cross ref)" style="rounded=0;whiteSpace=wrap;html=1;" vertex="1" parent="1">
          <mxGeometry x="581" y="222" width="95" height="48" as="geometry" />
        </mxCell>
        <mxCell id="SV_L0hvyP7PEhbChsQPp-57" value="&lt;b&gt;Search Before Create (SBC) Application&lt;/b&gt;" style="text;html=1;strokeColor=none;fillColor=none;align=center;verticalAlign=middle;whiteSpace=wrap;rounded=0;" vertex="1" parent="1">
          <mxGeometry x="560" y="85" width="205" height="30" as="geometry" />
        </mxCell>
        <mxCell id="SV_L0hvyP7PEhbChsQPp-59" value="EGRESS Job" style="overflow=block;blockSpacing=1;whiteSpace=wrap;aspect=fixed;html=1;points=[];align=center;verticalAlign=top;image;image=img/lib/mscae/Data_Box.svg;fontSize=13;spacing=0;strokeColor=#3a414a;strokeOpacity=100;rounded=1;absoluteArcSize=1;arcSize=9;fillColor=#45ADD2;strokeWidth=0.8;lucidId=bUlvEU.89sOu;" vertex="1" parent="1">
          <mxGeometry x="991" y="254" width="69.07" height="66" as="geometry" />
        </mxCell>
        <mxCell id="SV_L0hvyP7PEhbChsQPp-60" style="edgeStyle=orthogonalEdgeStyle;rounded=0;orthogonalLoop=1;jettySize=auto;html=1;entryX=1;entryY=0.25;entryDx=0;entryDy=0;dashed=1;" edge="1" parent="1" source="SV_L0hvyP7PEhbChsQPp-61" target="SV_L0hvyP7PEhbChsQPp-32">
          <mxGeometry relative="1" as="geometry">
            <Array as="points">
              <mxPoint x="560" y="408" />
              <mxPoint x="560" y="408" />
            </Array>
          </mxGeometry>
        </mxCell>
        <mxCell id="SV_L0hvyP7PEhbChsQPp-61" value="SQS" style="outlineConnect=0;dashed=0;verticalLabelPosition=bottom;verticalAlign=top;align=center;html=1;shape=mxgraph.aws3.sqs;fillColor=#D9A741;gradientColor=none;" vertex="1" parent="1">
          <mxGeometry x="600" y="387" width="70" height="83" as="geometry" />
        </mxCell>
        <mxCell id="SV_L0hvyP7PEhbChsQPp-62" value="" style="endArrow=none;html=1;rounded=0;dashed=1;" edge="1" parent="1">
          <mxGeometry width="50" height="50" relative="1" as="geometry">
            <mxPoint x="42" y="470.75" as="sourcePoint" />
            <mxPoint x="102" y="470.75" as="targetPoint" />
          </mxGeometry>
        </mxCell>
        <mxCell id="SV_L0hvyP7PEhbChsQPp-63" value="" style="endArrow=none;html=1;rounded=0;" edge="1" parent="1">
          <mxGeometry width="50" height="50" relative="1" as="geometry">
            <mxPoint x="40" y="500.75" as="sourcePoint" />
            <mxPoint x="100" y="500.75" as="targetPoint" />
          </mxGeometry>
        </mxCell>
        <mxCell id="SV_L0hvyP7PEhbChsQPp-64" value="Real-time" style="text;html=1;strokeColor=none;fillColor=none;align=center;verticalAlign=middle;whiteSpace=wrap;rounded=0;" vertex="1" parent="1">
          <mxGeometry x="112" y="456.75" width="60" height="30" as="geometry" />
        </mxCell>
        <mxCell id="SV_L0hvyP7PEhbChsQPp-65" value="Batch" style="text;html=1;strokeColor=none;fillColor=none;align=center;verticalAlign=middle;whiteSpace=wrap;rounded=0;" vertex="1" parent="1">
          <mxGeometry x="101" y="484.75" width="60" height="30" as="geometry" />
        </mxCell>
        <mxCell id="SV_L0hvyP7PEhbChsQPp-66" value="" style="endArrow=none;html=1;rounded=0;dashed=1;" edge="1" parent="1">
          <mxGeometry width="50" height="50" relative="1" as="geometry">
            <mxPoint x="87" y="14" as="sourcePoint" />
            <mxPoint x="147" y="14" as="targetPoint" />
          </mxGeometry>
        </mxCell>
        <mxCell id="SV_L0hvyP7PEhbChsQPp-67" value="" style="endArrow=none;html=1;rounded=0;" edge="1" parent="1">
          <mxGeometry width="50" height="50" relative="1" as="geometry">
            <mxPoint x="85" y="44" as="sourcePoint" />
            <mxPoint x="145" y="44" as="targetPoint" />
          </mxGeometry>
        </mxCell>
        <mxCell id="SV_L0hvyP7PEhbChsQPp-68" value="Real-time" style="text;html=1;strokeColor=none;fillColor=none;align=center;verticalAlign=middle;whiteSpace=wrap;rounded=0;" vertex="1" parent="1">
          <mxGeometry x="157" width="60" height="30" as="geometry" />
        </mxCell>
        <mxCell id="SV_L0hvyP7PEhbChsQPp-69" value="Batch" style="text;html=1;strokeColor=none;fillColor=none;align=center;verticalAlign=middle;whiteSpace=wrap;rounded=0;" vertex="1" parent="1">
          <mxGeometry x="146" y="28" width="60" height="30" as="geometry" />
        </mxCell>
        <mxCell id="SV_L0hvyP7PEhbChsQPp-70" value="Create/Update/Delete" style="text;html=1;strokeColor=none;fillColor=none;align=center;verticalAlign=middle;whiteSpace=wrap;rounded=0;" vertex="1" parent="1">
          <mxGeometry x="332" y="231" width="120" height="30" as="geometry" />
        </mxCell>
        <mxCell id="SV_L0hvyP7PEhbChsQPp-74" value="App&lt;br&gt;Connector" style="text;html=1;strokeColor=none;fillColor=none;align=center;verticalAlign=middle;whiteSpace=wrap;rounded=0;" vertex="1" parent="1">
          <mxGeometry x="370" y="119" width="60" height="30" as="geometry" />
        </mxCell>
        <mxCell id="SV_L0hvyP7PEhbChsQPp-75" value="SQS" style="outlineConnect=0;dashed=0;verticalLabelPosition=bottom;verticalAlign=top;align=center;html=1;shape=mxgraph.aws3.sqs;fillColor=#D9A741;gradientColor=none;" vertex="1" parent="1">
          <mxGeometry x="393" y="160.5" width="20" height="29.5" as="geometry" />
        </mxCell>
      </root>
    </mxGraphModel>
  </diagram>
  <diagram id="bGevoMHbeWCa5JEa2oR0" name="job scheduler">
    <mxGraphModel dx="1050" dy="661" grid="1" gridSize="10" guides="1" tooltips="1" connect="1" arrows="1" fold="1" page="1" pageScale="1" pageWidth="1100" pageHeight="850" math="0" shadow="0">
      <root>
        <mxCell id="0" />
        <mxCell id="1" parent="0" />
        <mxCell id="qi82Yr8vxU3euMMOb_lD-1" value="" style="edgeStyle=orthogonalEdgeStyle;rounded=0;orthogonalLoop=1;jettySize=auto;html=1;" edge="1" parent="1" source="qi82Yr8vxU3euMMOb_lD-2" target="qi82Yr8vxU3euMMOb_lD-10">
          <mxGeometry relative="1" as="geometry" />
        </mxCell>
        <mxCell id="qi82Yr8vxU3euMMOb_lD-2" value="Data Loads in Azure Blob storage or S3 Bucket" style="rounded=0;whiteSpace=wrap;html=1;" vertex="1" parent="1">
          <mxGeometry x="320" y="205" width="180" height="50" as="geometry" />
        </mxCell>
        <mxCell id="qi82Yr8vxU3euMMOb_lD-3" value="9:00 AM" style="text;html=1;strokeColor=none;fillColor=none;align=center;verticalAlign=middle;whiteSpace=wrap;rounded=0;" vertex="1" parent="1">
          <mxGeometry x="390" y="270" width="60" height="30" as="geometry" />
        </mxCell>
        <mxCell id="qi82Yr8vxU3euMMOb_lD-4" style="edgeStyle=orthogonalEdgeStyle;rounded=0;orthogonalLoop=1;jettySize=auto;html=1;" edge="1" parent="1" source="qi82Yr8vxU3euMMOb_lD-5" target="qi82Yr8vxU3euMMOb_lD-2">
          <mxGeometry relative="1" as="geometry" />
        </mxCell>
        <mxCell id="qi82Yr8vxU3euMMOb_lD-5" value="TBA on prem" style="rounded=0;whiteSpace=wrap;html=1;" vertex="1" parent="1">
          <mxGeometry x="100" y="200" width="120" height="60" as="geometry" />
        </mxCell>
        <mxCell id="qi82Yr8vxU3euMMOb_lD-6" value="Between 8: AM to 6 PM" style="text;html=1;strokeColor=none;fillColor=none;align=center;verticalAlign=middle;whiteSpace=wrap;rounded=0;" vertex="1" parent="1">
          <mxGeometry x="120" y="280" width="60" height="30" as="geometry" />
        </mxCell>
        <mxCell id="qi82Yr8vxU3euMMOb_lD-9" value="" style="edgeStyle=orthogonalEdgeStyle;rounded=0;orthogonalLoop=1;jettySize=auto;html=1;" edge="1" parent="1" source="qi82Yr8vxU3euMMOb_lD-10" target="qi82Yr8vxU3euMMOb_lD-14">
          <mxGeometry relative="1" as="geometry" />
        </mxCell>
        <mxCell id="qi82Yr8vxU3euMMOb_lD-10" value="MDM Ingress (Start)" style="whiteSpace=wrap;html=1;rounded=0;" vertex="1" parent="1">
          <mxGeometry x="610" y="200" width="120" height="60" as="geometry" />
        </mxCell>
        <mxCell id="qi82Yr8vxU3euMMOb_lD-11" value="10:00 AM" style="text;html=1;strokeColor=none;fillColor=none;align=center;verticalAlign=middle;whiteSpace=wrap;rounded=0;" vertex="1" parent="1">
          <mxGeometry x="640" y="270" width="60" height="30" as="geometry" />
        </mxCell>
        <mxCell id="qi82Yr8vxU3euMMOb_lD-13" value="" style="edgeStyle=orthogonalEdgeStyle;rounded=0;orthogonalLoop=1;jettySize=auto;html=1;" edge="1" parent="1" source="qi82Yr8vxU3euMMOb_lD-14" target="qi82Yr8vxU3euMMOb_lD-20">
          <mxGeometry relative="1" as="geometry" />
        </mxCell>
        <mxCell id="qi82Yr8vxU3euMMOb_lD-14" value="MDM Ingress (Completes)" style="whiteSpace=wrap;html=1;rounded=0;" vertex="1" parent="1">
          <mxGeometry x="810" y="200" width="120" height="60" as="geometry" />
        </mxCell>
        <mxCell id="qi82Yr8vxU3euMMOb_lD-15" value="Delta" style="text;html=1;strokeColor=none;fillColor=none;align=center;verticalAlign=middle;whiteSpace=wrap;rounded=0;" vertex="1" parent="1">
          <mxGeometry x="615" y="310" width="110" height="30" as="geometry" />
        </mxCell>
        <mxCell id="qi82Yr8vxU3euMMOb_lD-16" value="12:30 PM" style="text;html=1;strokeColor=none;fillColor=none;align=center;verticalAlign=middle;whiteSpace=wrap;rounded=0;" vertex="1" parent="1">
          <mxGeometry x="840" y="270" width="60" height="30" as="geometry" />
        </mxCell>
        <mxCell id="qi82Yr8vxU3euMMOb_lD-19" value="" style="edgeStyle=orthogonalEdgeStyle;rounded=0;orthogonalLoop=1;jettySize=auto;html=1;" edge="1" parent="1" source="qi82Yr8vxU3euMMOb_lD-20" target="qi82Yr8vxU3euMMOb_lD-24">
          <mxGeometry relative="1" as="geometry" />
        </mxCell>
        <mxCell id="qi82Yr8vxU3euMMOb_lD-20" value="Match Merge (Start)" style="whiteSpace=wrap;html=1;rounded=0;" vertex="1" parent="1">
          <mxGeometry x="1010" y="200" width="120" height="60" as="geometry" />
        </mxCell>
        <mxCell id="qi82Yr8vxU3euMMOb_lD-21" value="1:00 PM" style="text;html=1;strokeColor=none;fillColor=none;align=center;verticalAlign=middle;whiteSpace=wrap;rounded=0;" vertex="1" parent="1">
          <mxGeometry x="1040" y="270" width="60" height="30" as="geometry" />
        </mxCell>
        <mxCell id="gWjpKzHbiaWQ3AUOQEjX-1" style="edgeStyle=orthogonalEdgeStyle;rounded=0;orthogonalLoop=1;jettySize=auto;html=1;" edge="1" parent="1" source="qi82Yr8vxU3euMMOb_lD-24" target="qi82Yr8vxU3euMMOb_lD-37">
          <mxGeometry relative="1" as="geometry" />
        </mxCell>
        <mxCell id="qi82Yr8vxU3euMMOb_lD-24" value="Match Completes" style="whiteSpace=wrap;html=1;rounded=0;" vertex="1" parent="1">
          <mxGeometry x="1210" y="200" width="120" height="60" as="geometry" />
        </mxCell>
        <mxCell id="qi82Yr8vxU3euMMOb_lD-25" value="5:00 PM" style="text;html=1;strokeColor=none;fillColor=none;align=center;verticalAlign=middle;whiteSpace=wrap;rounded=0;" vertex="1" parent="1">
          <mxGeometry x="1240" y="270" width="60" height="30" as="geometry" />
        </mxCell>
        <mxCell id="qi82Yr8vxU3euMMOb_lD-35" value="42 hrs. delay" style="text;html=1;strokeColor=none;fillColor=none;align=center;verticalAlign=middle;whiteSpace=wrap;rounded=0;" vertex="1" parent="1">
          <mxGeometry x="1015" y="610" width="110" height="30" as="geometry" />
        </mxCell>
        <mxCell id="qi82Yr8vxU3euMMOb_lD-37" value="Publish to TBA (Start)" style="whiteSpace=wrap;html=1;rounded=0;fillColor=#fff2cc;strokeColor=#d6b656;" vertex="1" parent="1">
          <mxGeometry x="1410" y="200" width="120" height="60" as="geometry" />
        </mxCell>
      </root>
    </mxGraphModel>
  </diagram>
</mxfile>
